<svg width="800" height="400" xmlns="http://www.w3.org/2000/svg">
  <!-- Fondo -->
  <rect width="800" height="400" fill="#f5f5f5"/>
  
  <!-- Encabezado -->
  <rect width="800" height="60" fill="#4472C4"/>
  <text x="30" y="38" font-family="Arial" font-size="22" fill="white" font-weight="bold">DIAN Leticia - Dashboard Sistema Tributario</text>
  
  <!-- KPIs -->
  <rect x="30" y="80" width="170" height="100" rx="5" fill="white" stroke="#e0e0e0"/>
  <text x="115" y="110" font-family="Arial" font-size="14" fill="#333" text-anchor="middle">Casos Asignados</text>
  <text x="115" y="145" font-family="Arial" font-size="28" fill="#4472C4" font-weight="bold" text-anchor="middle">12</text>
  <text x="115" y="165" font-family="Arial" font-size="12" fill="#666" text-anchor="middle">Total</text>
  
  <rect x="220" y="80" width="170" height="100" rx="5" fill="white" stroke="#e0e0e0"/>
  <text x="305" y="110" font-family="Arial" font-size="14" fill="#333" text-anchor="middle">Casos Cerrados</text>
  <text x="305" y="145" font-family="Arial" font-size="28" fill="#70AD47" font-weight="bold" text-anchor="middle">5</text>
  <text x="305" y="165" font-family="Arial" font-size="12" fill="#666" text-anchor="middle">42%</text>
  
  <rect x="410" y="80" width="170" height="100" rx="5" fill="white" stroke="#e0e0e0"/>
  <text x="495" y="110" font-family="Arial" font-size="14" fill="#333" text-anchor="middle">En Proceso</text>
  <text x="495" y="145" font-family="Arial" font-size="28" fill="#FFC000" font-weight="bold" text-anchor="middle">4</text>
  <text x="495" y="165" font-family="Arial" font-size="12" fill="#666" text-anchor="middle">33%</text>
  
  <rect x="600" y="80" width="170" height="100" rx="5" fill="white" stroke="#e0e0e0"/>
  <text x="685" y="110" font-family="Arial" font-size="14" fill="#333" text-anchor="middle">Por Vencer</text>
  <text x="685" y="145" font-family="Arial" font-size="28" fill="#C5504B" font-weight="bold" text-anchor="middle">3</text>
  <text x="685" y="165" font-family="Arial" font-size="12" fill="#666" text-anchor="middle">25%</text>
  
  <!-- Gráfico de Casos -->
  <rect x="30" y="200" width="370" height="180" rx="5" fill="white" stroke="#e0e0e0"/>
  <text x="50" y="230" font-family="Arial" font-size="16" fill="#4472C4" font-weight="bold">Casos por Estado</text>
  <line x1="30" x2="400" y1="240" y2="240" stroke="#e0e0e0" stroke-width="1"/>
  
  <!-- Gráfico circular simplificado -->
  <circle cx="200" cy="300" r="70" fill="none" stroke="#e0e0e0" stroke-width="1"/>
  
  <!-- Segmentos del gráfico -->
  <path d="M200,300 L200,230 A70,70 0 0,1 260,330 z" fill="#4472C4"/>
  <path d="M200,300 L260,330 A70,70 0 0,1 170,365 z" fill="#FFC000"/>
  <path d="M200,300 L170,365 A70,70 0 0,1 130,270 z" fill="#70AD47"/>
  <path d="M200,300 L130,270 A70,70 0 0,1 200,230 z" fill="#C5504B"/>
  
  <!-- Leyenda -->
  <rect x="290" y="260" width="12" height="12" fill="#4472C4"/>
  <text x="310" y="270" font-family="Arial" font-size="12" fill="#333">Abierto (42%)</text>
  
  <rect x="290" y="285" width="12" height="12" fill="#FFC000"/>
  <text x="310" y="295" font-family="Arial" font-size="12" fill="#333">En Proceso (33%)</text>
  
  <rect x="290" y="310" width="12" height="12" fill="#70AD47"/>
  <text x="310" y="320" font-family="Arial" font-size="12" fill="#333">Cerrado (17%)</text>
  
  <rect x="290" y="335" width="12" height="12" fill="#C5504B"/>
  <text x="310" y="345" font-family="Arial" font-size="12" fill="#333">Vencido (8%)</text>
  
  <!-- Tabla de Casos Próximos a Vencer -->
  <rect x="420" y="200" width="350" height="180" rx="5" fill="white" stroke="#e0e0e0"/>
  <text x="440" y="230" font-family="Arial" font-size="16" fill="#4472C4" font-weight="bold">Casos Próximos a Vencer</text>
  <line x1="420" x2="770" y1="240" y2="240" stroke="#e0e0e0" stroke-width="1"/>
  
  <!-- Encabezados de tabla -->
  <text x="440" y="260" font-family="Arial" font-size="12" fill="#333" font-weight="bold">Número</text>
  <text x="520" y="260" font-family="Arial" font-size="12" fill="#333" font-weight="bold">Contribuyente</text>
  <text x="650" y="260" font-family="Arial" font-size="12" fill="#333" font-weight="bold">Días</text>
  <text x="700" y="260" font-family="Arial" font-size="12" fill="#333" font-weight="bold">Estado</text>
  
  <!-- Filas de tabla -->
  <line x1="420" x2="770" y1="270" y2="270" stroke="#e0e0e0" stroke-width="1"/>
  
  <text x="440" y="290" font-family="Arial" font-size="12" fill="#333">CASO-004</text>
  <text x="520" y="290" font-family="Arial" font-size="12" fill="#333">Empresa DEF</text>
  <text x="650" y="290" font-family="Arial" font-size="12" fill="#C5504B" font-weight="bold">5</text>
  <rect x="700" y="280" width="50" height="15" rx="7.5" fill="#4472C4"/>
  <text x="725" y="290" font-family="Arial" font-size="10" fill="white" text-anchor="middle">Abierto</text>
  
  <line x1="420" x2="770" y1="300" y2="300" stroke="#e0e0e0" stroke-width="1"/>
  
  <text x="440" y="320" font-family="Arial" font-size="12" fill="#333">CASO-007</text>
  <text x="520" y="320" font-family="Arial" font-size="12" fill="#333">María Rodríguez</text>
  <text x="650" y="320" font-family="Arial" font-size="12" fill="#FFC000" font-weight="bold">8</text>
  <rect x="700" y="310" width="50" height="15" rx="7.5" fill="#FFC000"/>
  <text x="725" y="320" font-family="Arial" font-size="10" fill="white" text-anchor="middle">En Proceso</text>
  
  <line x1="420" x2="770" y1="330" y2="330" stroke="#e0e0e0" stroke-width="1"/>
  
  <text x="440" y="350" font-family="Arial" font-size="12" fill="#333">CASO-009</text>
  <text x="520" y="350" font-family="Arial" font-size="12" fill="#333">Inversiones PQR</text>
  <text x="650" y="350" font-family="Arial" font-size="12" fill="#333">10</text>
  <rect x="700" y="340" width="50" height="15" rx="7.5" fill="#4472C4"/>
  <text x="725" y="350" font-family="Arial" font-size="10" fill="white" text-anchor="middle">Abierto</text>
</svg>